HIERARCHY
ROOT Hips
{
  OFFSET 5.84602e-005 68.8428 3.50346
  CHANNELS 6 Xposition Yposition Zposition Zrotation Xrotation Yrotation
  JOINT Spine
  {
    OFFSET 0 8.597 -4.6522
    CHANNELS 3 Zrotation Xrotation Yrotation
    JOINT Spine1
    {
      OFFSET 0 7.8454 0.4098
      CHANNELS 3 Zrotation Xrotation Yrotation
      JOINT Spine2
      {
        OFFSET 0 9.7078 -2.1609
        CHANNELS 3 Zrotation Xrotation Yrotation
        JOINT Neck
        {
          OFFSET 0 21.8761 -0.4549
          CHANNELS 3 Zrotation Xrotation Yrotation
          JOINT Head
          {
            OFFSET 0 12.3537 3.3602
            CHANNELS 3 Zrotation Xrotation Yrotation
            End Site
            {
              OFFSET 0.0001 18.9506 0.5657
            }
          }
        }
        JOINT LeftShoulder
        {
          OFFSET 2.2086 21.1115 7.2329
          CHANNELS 3 Zrotation Xrotation Yrotation
          JOINT LeftArm
          {
            OFFSET 13.1193 3.0282 -4.8998
            CHANNELS 3 Zrotation Xrotation Yrotation
            JOINT LeftForeArm
            {
              OFFSET 27.4081 -0.0973053 -0.2375
              CHANNELS 3 Zrotation Xrotation Yrotation
              JOINT LeftHand
              {
                OFFSET 22.8641 0.0662994 -0.1369
                CHANNELS 3 Zrotation Xrotation Yrotation
                JOINT LeftHandIndex1
                {
                  OFFSET 8.8614 0.775009 2.4612
                  CHANNELS 3 Zrotation Xrotation Yrotation
                  JOINT LeftHandIndex2
                  {
                    OFFSET 3.3146 -0.808304 0.5841
                    CHANNELS 3 Zrotation Xrotation Yrotation
                    JOINT LeftHandIndex3
                    {
                      OFFSET 2.2628 -0.552002 0.3989
                      CHANNELS 3 Zrotation Xrotation Yrotation
                      End Site
                      {
                        OFFSET 1.6102 -0.4807 0.2612
                      }
                    }
                  }
                }
                JOINT LeftHandMiddle1
                {
                  OFFSET 8.9937 0.895004 0.2143
                  CHANNELS 3 Zrotation Xrotation Yrotation
                  JOINT LeftHandMiddle2
                  {
                    OFFSET 4.0984 0.0113983 -0.0242
                    CHANNELS 3 Zrotation Xrotation Yrotation
                    JOINT LeftHandMiddle3
                    {
                      OFFSET 2.2716 0.00689697 -0.0138001
                      CHANNELS 3 Zrotation Xrotation Yrotation
                      End Site
                      {
                        OFFSET 2.0404 -0.1441 0.0027
                      }
                    }
                  }
                }
                JOINT LeftHandRing1
                {
                  OFFSET 8.5234 0.597198 -2.0164
                  CHANNELS 3 Zrotation Xrotation Yrotation
                  JOINT LeftHandRing2
                  {
                    OFFSET 3.7188 -0.188293 -0.2328
                    CHANNELS 3 Zrotation Xrotation Yrotation
                    JOINT LeftHandRing3
                    {
                      OFFSET 2.1191 -0.106598 -0.1332
                      CHANNELS 3 Zrotation Xrotation Yrotation
                      End Site
                      {
                        OFFSET 1.8737 -0.2304 -0.0886
                      }
                    }
                  }
                }
                JOINT LeftHandPinky1
                {
                  OFFSET 7.9094 -0.601089 -3.4825
                  CHANNELS 3 Zrotation Xrotation Yrotation
                  JOINT LeftHandPinky2
                  {
                    OFFSET 2.2874 -0.477005 -0.6314
                    CHANNELS 3 Zrotation Xrotation Yrotation
                    JOINT LeftHandPinky3
                    {
                      OFFSET 1.6774 -0.349396 -0.4633
                      CHANNELS 3 Zrotation Xrotation Yrotation
                      End Site
                      {
                        OFFSET 1.4888 -0.4091 -0.3416
                      }
                    }
                  }
                }
                JOINT LeftHandThumb1
                {
                  OFFSET 1.833 -1.3875 1.3896
                  CHANNELS 3 Zrotation Xrotation Yrotation
                  JOINT LeftHandThumb2
                  {
                    OFFSET 3.4129 -1.121 2.5732
                    CHANNELS 3 Zrotation Xrotation Yrotation
                    JOINT LeftHandThumb3
                    {
                      OFFSET 2.2474 -0.804199 1.6192
                      CHANNELS 3 Zrotation Xrotation Yrotation
                      End Site
                      {
                        OFFSET 1.6527 -0.5689 1.1317
                      }
                    }
                  }
                }
              }
            }
          }
        }
        JOINT RightShoulder
        {
          OFFSET -2.2086 21.1115 7.2329
          CHANNELS 3 Zrotation Xrotation Yrotation
          JOINT RightArm
          {
            OFFSET -13.1216 3.0287 -4.9007
            CHANNELS 3 Zrotation Xrotation Yrotation
            JOINT RightForeArm
            {
              OFFSET -27.4081 -0.0973053 -0.2375
              CHANNELS 3 Zrotation Xrotation Yrotation
              JOINT RightHand
              {
                OFFSET -22.8641 0.0664063 -0.1369
                CHANNELS 3 Zrotation Xrotation Yrotation
                JOINT RightHandIndex1
                {
                  OFFSET -8.8614 0.774994 2.4612
                  CHANNELS 3 Zrotation Xrotation Yrotation
                  JOINT RightHandIndex2
                  {
                    OFFSET -3.3146 -0.808304 0.5841
                    CHANNELS 3 Zrotation Xrotation Yrotation
                    JOINT RightHandIndex3
                    {
                      OFFSET -2.2628 -0.552002 0.3989
                      CHANNELS 3 Zrotation Xrotation Yrotation
                      End Site
                      {
                        OFFSET -1.6102 -0.4807 0.2612
                      }
                    }
                  }
                }
                JOINT RightHandMiddle1
                {
                  OFFSET -8.9937 0.894989 0.2143
                  CHANNELS 3 Zrotation Xrotation Yrotation
                  JOINT RightHandMiddle2
                  {
                    OFFSET -4.0984 0.0113983 -0.0242
                    CHANNELS 3 Zrotation Xrotation Yrotation
                    JOINT RightHandMiddle3
                    {
                      OFFSET -2.2716 0.00691223 -0.0138001
                      CHANNELS 3 Zrotation Xrotation Yrotation
                      End Site
                      {
                        OFFSET -2.0404 -0.1441 0.0027
                      }
                    }
                  }
                }
                JOINT RightHandRing1
                {
                  OFFSET -8.5234 0.597198 -2.0164
                  CHANNELS 3 Zrotation Xrotation Yrotation
                  JOINT RightHandRing2
                  {
                    OFFSET -3.7188 -0.188309 -0.2328
                    CHANNELS 3 Zrotation Xrotation Yrotation
                    JOINT RightHandRing3
                    {
                      OFFSET -2.1191 -0.106598 -0.1332
                      CHANNELS 3 Zrotation Xrotation Yrotation
                      End Site
                      {
                        OFFSET -1.8737 -0.2304 -0.0886
                      }
                    }
                  }
                }
                JOINT RightHandPinky1
                {
                  OFFSET -7.9094 -0.601105 -3.4825
                  CHANNELS 3 Zrotation Xrotation Yrotation
                  JOINT RightHandPinky2
                  {
                    OFFSET -2.2874 -0.477005 -0.6314
                    CHANNELS 3 Zrotation Xrotation Yrotation
                    JOINT RightHandPinky3
                    {
                      OFFSET -1.6774 -0.349396 -0.4633
                      CHANNELS 3 Zrotation Xrotation Yrotation
                      End Site
                      {
                        OFFSET -1.4888 -0.4091 -0.3416
                      }
                    }
                  }
                }
                JOINT RightHandThumb1
                {
                  OFFSET -1.833 -1.38751 1.3896
                  CHANNELS 3 Zrotation Xrotation Yrotation
                  JOINT RightHandThumb2
                  {
                    OFFSET -3.41299 -1.12099 2.5732
                    CHANNELS 3 Zrotation Xrotation Yrotation
                    JOINT RightHandThumb3
                    {
                      OFFSET -2.24741 -0.804108 1.6192
                      CHANNELS 3 Zrotation Xrotation Yrotation
                      End Site
                      {
                        OFFSET -1.6527 -0.5689 1.1317
                      }
                    }
                  }
                }
              }
            }
          }
        }
      }
    }
  }
  JOINT RightUpLeg
  {
    OFFSET -9.1966 3.8861 -0.7581
    CHANNELS 3 Zrotation Xrotation Yrotation
    JOINT RightLeg
    {
      OFFSET -0.7359 -41.0265 0
      CHANNELS 3 Zrotation Xrotation Yrotation
      JOINT RightFoot
      {
        OFFSET 0 -40.2855 0
        CHANNELS 3 Zrotation Xrotation Yrotation
        JOINT RightToeBase
        {
          OFFSET 0 -5.6122 11.7359
          CHANNELS 3 Zrotation Xrotation Yrotation
          End Site
          {
            OFFSET 0 0 7.8731
          }
        }
      }
    }
  }
  JOINT LeftUpLeg
  {
    OFFSET 9.1965 3.8864 -0.7581
    CHANNELS 3 Zrotation Xrotation Yrotation
    JOINT LeftLeg
    {
      OFFSET 0.7359 -41.0268 0
      CHANNELS 3 Zrotation Xrotation Yrotation
      JOINT LeftFoot
      {
        OFFSET 0 -40.2855 0
        CHANNELS 3 Zrotation Xrotation Yrotation
        JOINT LeftToeBase
        {
          OFFSET 0 -5.6122 11.7359
          CHANNELS 3 Zrotation Xrotation Yrotation
          End Site
          {
            OFFSET 0 0 7.8731
          }
        }
      }
    }
  }
}
MOTION
Frames:	4
Frame Time:	0.0333333
0.870261 34.5638 17.6569 0 23.0235 -0 0.332192 2.39002 -0.503043 0.68629 4.77698 -1.02129 0.68629 4.77698 -1.02129 -8.26623e-006 2.20492 1.01142e-005 -3.88948e-007 -0.885735 -2.00592e-007 -21.7986 29.9858 -5.04602 -82.0649 -51.0609 -56.4018 -90.6976 -1.65646 -15.0038 153.407 33.1121 -129.424 -3.18055e-015 2.78299e-015 2.38542e-015 6.36111e-015 6.36111e-015 7.95139e-016 -1.15865e-031 2.78299e-015 2.38542e-015 -3.18055e-015 2.78299e-015 2.38542e-015 -0.0146278 -9.18654e-005 1.46165e-006 3.18055e-015 4.37326e-015 -2.38542e-015 -3.18055e-015 2.78299e-015 2.38542e-015 -0.0187792 -0.00117736 6.43768e-005 -6.62086e-032 -7.95139e-016 -4.77083e-015 -3.18055e-015 2.78299e-015 2.38542e-015 -0.0122759 -0.00324967 0.000676468 -1.27222e-014 -1.59028e-014 2.38542e-015 -3.18055e-015 2.78299e-015 2.38542e-015 6.36111e-015 6.36111e-015 7.95139e-016 -1.15865e-031 2.78299e-015 2.38542e-015 20.928 27.974 5.25221 82.0501 -51.1696 56.4953 90.3115 -1.7602 15.1211 -157.759 34.9245 136.777 3.18055e-015 1.19271e-015 -1.59028e-015 2.88616e-007 2.90893e-007 -1.18849e-007 1.10348e-032 -7.95139e-016 7.95139e-016 3.18055e-015 1.19271e-015 -1.59028e-015 0.0150252 -9.09617e-005 8.17721e-006 3.18055e-015 1.03368e-014 -2.38542e-015 3.18055e-015 1.19271e-015 -1.59028e-015 0.0189636 -0.00118959 -6.19236e-005 9.54166e-015 -2.38542e-015 -2.38542e-015 3.18055e-015 1.19271e-015 -1.59028e-015 0.0123154 -0.00326298 -0.000681117 -3.18055e-015 1.98785e-015 -0 3.18055e-015 1.19271e-015 -1.59028e-015 2.88616e-007 2.90893e-007 -1.18849e-007 1.10348e-032 -7.95139e-016 7.95139e-016 -115.115 -64.7565 -113.654 -167.308 78.0151 165.235 -2.35954 -13.9637 -7.14934 -1.93004e-006 -4.47012e-007 1.6161e-006 116.068 -65.7612 116.029 168.342 77.1343 -166.207 3.98286 -15.3681 8.60543 8.94812e-007 -6.19974e-007 -1.0803e-007 
0.87027 34.5593 17.4193 0 23.55 -0 0.333628 2.25982 -0.501167 0.687845 4.51658 -1.01669 0.687845 4.51658 -1.01669 -2.42969e-005 1.49147 2.52437e-005 -1.68255e-007 -1.77439 2.2744e-007 -21.7986 29.9858 -5.04603 -82.0649 -51.0609 -56.4018 -90.8763 -1.60697 -14.9864 153.602 33.192 -129.406 -5.00473e-007 -3.43244e-007 -2.42459e-008 2.88799e-007 -2.90862e-007 -1.18485e-007 6.36111e-015 -2.78299e-015 1.59028e-015 -5.00473e-007 -3.43244e-007 -2.42459e-008 -0.0145712 -8.76215e-005 3.04654e-006 -3.18055e-015 -4.77083e-015 -7.95139e-016 -5.00473e-007 -3.43244e-007 -2.42459e-008 -0.0187534 -0.00117733 6.7574e-005 -3.18055e-015 -1.39149e-014 -7.95139e-016 -5.00473e-007 -3.43244e-007 -2.42459e-008 -0.0122777 -0.00324996 0.000672734 -6.36111e-015 -5.96354e-015 -0 -5.00473e-007 -3.43244e-007 -2.42459e-008 2.88799e-007 -2.90862e-007 -1.18485e-007 6.36111e-015 -2.78299e-015 1.59028e-015 20.928 27.974 5.25224 82.0501 -51.1696 56.4952 90.4862 -1.71158 15.1045 -157.963 35.0035 136.77 -3.18055e-015 -3.57812e-015 -7.95139e-016 -2.81387e-031 -6.75868e-015 -2.38542e-015 3.18055e-015 1.98785e-015 -1.59028e-015 -3.18055e-015 -3.57812e-015 -7.95139e-016 0.0149925 -9.07173e-005 4.03375e-006 6.36111e-015 1.11319e-014 -7.95139e-016 -3.18055e-015 -3.57812e-015 -7.95139e-016 0.0189602 -0.00118527 -5.89435e-005 2.15178e-031 -5.1684e-015 2.38542e-015 -3.18055e-015 -3.57812e-015 -7.95139e-016 0.0122789 -0.00324778 -0.00067316 -0 -7.95139e-016 -0 -3.18055e-015 -3.57812e-015 -7.95139e-016 -2.81387e-031 -6.75868e-015 -2.38542e-015 3.18055e-015 1.98785e-015 -1.59028e-015 -116.783 -64.842 -115.151 -167.316 78.0081 165.239 -2.14448 -13.6886 -7.47846 -6.13524e-007 -7.36791e-007 6.53187e-006 117.837 -65.8263 117.628 168.349 77.1274 -166.21 3.77399 -15.084 8.92588 7.77698e-008 -4.15379e-007 -1.77839e-007 
0.870278 34.5554 17.1817 0 24.0763 -0 0.335056 2.1296 -0.499272 0.689399 4.25614 -1.01206 0.689399 4.25613 -1.01205 1.36185e-007 0.777864 -1.06982e-006 2.77058e-009 -2.66402 -4.20515e-007 -21.7986 29.9859 -5.04601 -82.0649 -51.0609 -56.4018 -91.0549 -1.5575 -14.9689 153.796 33.2719 -129.389 8.6659e-007 -8.72421e-007 -3.55466e-007 1.15545e-006 -1.16323e-006 -4.73954e-007 -3.18055e-015 -1.19271e-015 7.95139e-016 8.6659e-007 -8.72421e-007 -3.55466e-007 -0.0146123 -9.00213e-005 -9.49397e-006 -6.36111e-015 1.98785e-014 1.03368e-014 8.6659e-007 -8.72421e-007 -3.55466e-007 -0.0187216 -0.00117163 5.58181e-005 -6.36111e-015 3.18055e-015 6.36111e-015 8.6659e-007 -8.72421e-007 -3.55466e-007 -0.0122064 -0.00323085 0.000665169 6.36111e-015 -2.10712e-014 -1.59028e-015 8.6659e-007 -8.72421e-007 -3.55466e-007 1.15545e-006 -1.16323e-006 -4.73954e-007 -3.18055e-015 -1.19271e-015 7.95139e-016 20.9281 27.9741 5.25218 82.0501 -51.1696 56.4953 90.661 -1.663 15.0877 -158.167 35.0826 136.763 -3.18055e-015 -7.95139e-016 1.59028e-015 -3.18055e-015 -3.97569e-015 1.59028e-015 -3.18055e-015 -3.97569e-015 7.95139e-016 -3.18055e-015 -7.95139e-016 1.59028e-015 0.0150158 -9.24402e-005 2.2225e-007 -9.54166e-015 9.54166e-015 -7.15625e-015 -3.18055e-015 -7.95139e-016 1.59028e-015 0.0189586 -0.00118762 -5.47729e-005 -6.36111e-015 1.55052e-014 -4.77083e-015 -3.18055e-015 -7.95139e-016 1.59028e-015 0.0122591 -0.0032461 -0.000675278 4.99114e-007 -3.31481e-007 2.06551e-008 -3.18055e-015 -7.95139e-016 1.59028e-015 -3.18055e-015 -3.97569e-015 1.59028e-015 -3.18055e-015 -3.97569e-015 7.95139e-016 -118.46 -64.9086 -116.657 -167.324 78.001 165.243 -1.92796 -13.4147 -7.80824 -2.16192e-006 1.12111e-008 3.20253e-006 119.612 -65.8713 119.234 168.356 77.1204 -166.212 3.56368 -14.8011 9.24696 1.8522e-006 3.7961e-007 5.49246e-008 
0.870285 34.5521 16.9442 0 24.6026 -0 0.336485 1.99939 -0.49737 0.690966 3.99574 -1.00741 0.690967 3.99574 -1.00741 -8.56762e-006 0.0630984 -4.01301e-006 4.14751e-007 -3.5545 -8.07944e-008 -21.7986 29.9859 -5.04601 -82.0649 -51.061 -56.4018 -91.2336 -1.50813 -14.9512 153.991 33.3519 -129.372 -1.44464e-007 1.45376e-007 5.92461e-008 1.44464e-007 -1.45376e-007 -5.92461e-008 -1.44464e-007 1.45376e-007 5.92461e-008 -1.44464e-007 1.45376e-007 5.92461e-008 -0.0146824 -9.0417e-005 3.85509e-006 -1.44463e-007 1.45368e-007 5.92648e-008 -1.44464e-007 1.45376e-007 5.92461e-008 -0.018748 -0.00117385 5.77855e-005 -1.44462e-007 1.45366e-007 5.92714e-008 -1.44464e-007 1.45376e-007 5.92461e-008 -0.0122441 -0.00324033 0.000675876 -6.50105e-007 -1.91465e-007 4.2349e-008 -1.44464e-007 1.45376e-007 5.92461e-008 1.44464e-007 -1.45376e-007 -5.92461e-008 -1.44464e-007 1.45376e-007 5.92461e-008 20.9281 27.9741 5.25217 82.0501 -51.1696 56.4953 90.8358 -1.6145 15.0709 -158.371 35.1617 136.757 -2.88823e-007 -2.90733e-007 1.18808e-007 -2.88823e-007 -2.90733e-007 1.18808e-007 -2.88823e-007 -2.90733e-007 1.18808e-007 -2.88823e-007 -2.90733e-007 1.18808e-007 0.0149725 -9.06175e-005 2.7189e-006 -2.88821e-007 -2.90717e-007 1.18846e-007 -2.88823e-007 -2.90733e-007 1.18808e-007 0.0190137 -0.00119253 -6.03221e-005 -2.88819e-007 -2.90714e-007 1.18859e-007 -2.88823e-007 -2.90733e-007 1.18808e-007 0.012242 -0.00323926 -0.000668846 -2.88816e-007 -2.90722e-007 1.18847e-007 -2.88823e-007 -2.90733e-007 1.18808e-007 -2.88823e-007 -2.90733e-007 1.18808e-007 -2.88823e-007 -2.90733e-007 1.18808e-007 -120.144 -64.9566 -118.17 -167.332 77.9938 165.248 -1.71006 -13.1421 -8.13869 -9.47414e-008 -1.18282e-006 3.17396e-006 121.393 -65.8956 120.845 168.363 77.1131 -166.215 3.35198 -14.5194 9.56866 -8.16767e-007 2.18542e-007 -7.45438e-008 
